<mxfile host="Electron" agent="Mozilla/5.0 (Windows NT 10.0; Win64; x64) AppleWebKit/537.36 (KHTML, like Gecko) draw.io/25.0.1 Chrome/128.0.6613.186 Electron/32.2.6 Safari/537.36" version="25.0.1" pages="2">
  <diagram name="useCase" id="c8AEZ2LgyztpFXAn0-71">
    <mxGraphModel dx="1615" dy="1103" grid="0" gridSize="10" guides="1" tooltips="1" connect="1" arrows="1" fold="1" page="1" pageScale="1" pageWidth="1400" pageHeight="850" background="#ffffff" math="0" shadow="0">
      <root>
        <mxCell id="0" />
        <mxCell id="1" parent="0" />
        <mxCell id="doWTckIAzgVQB3qoo8la-1" value="&lt;h1&gt;&lt;font face=&quot;Comic Sans MS&quot; size=&quot;1&quot; color=&quot;#000000&quot;&gt;&lt;b style=&quot;font-size: 32px;&quot;&gt;Admin useCase&lt;/b&gt;&lt;/font&gt;&lt;/h1&gt;" style="text;html=1;align=center;verticalAlign=middle;whiteSpace=wrap;rounded=0;" parent="1" vertex="1">
          <mxGeometry x="526" y="66" width="331" height="30" as="geometry" />
        </mxCell>
        <mxCell id="doWTckIAzgVQB3qoo8la-16" style="edgeStyle=orthogonalEdgeStyle;rounded=0;orthogonalLoop=1;jettySize=auto;html=1;exitX=0.5;exitY=0.5;exitDx=0;exitDy=0;exitPerimeter=0;entryX=0;entryY=0.5;entryDx=0;entryDy=0;strokeColor=#000000;endArrow=none;endFill=0;strokeWidth=2;" parent="1" source="doWTckIAzgVQB3qoo8la-3" target="doWTckIAzgVQB3qoo8la-5" edge="1">
          <mxGeometry relative="1" as="geometry" />
        </mxCell>
        <mxCell id="doWTckIAzgVQB3qoo8la-3" value="Actor" style="shape=umlActor;verticalLabelPosition=bottom;verticalAlign=top;html=1;outlineConnect=0;strokeColor=#000000;fillColor=none;strokeWidth=5;fontStyle=1;fontColor=#000000;" parent="1" vertex="1">
          <mxGeometry x="146" y="366.5" width="81" height="162" as="geometry" />
        </mxCell>
        <mxCell id="doWTckIAzgVQB3qoo8la-4" value="" style="rounded=0;whiteSpace=wrap;html=1;fillColor=none;strokeColor=#000000;strokeWidth=2;" parent="1" vertex="1">
          <mxGeometry x="388" y="216" width="845" height="457" as="geometry" />
        </mxCell>
        <mxCell id="doWTckIAzgVQB3qoo8la-15" style="edgeStyle=orthogonalEdgeStyle;rounded=0;orthogonalLoop=1;jettySize=auto;html=1;exitX=0;exitY=0.5;exitDx=0;exitDy=0;entryX=1;entryY=0.5;entryDx=0;entryDy=0;dashed=1;dashPattern=8 8;strokeColor=#000000;" parent="1" source="doWTckIAzgVQB3qoo8la-9" target="doWTckIAzgVQB3qoo8la-5" edge="1">
          <mxGeometry relative="1" as="geometry" />
        </mxCell>
        <mxCell id="doWTckIAzgVQB3qoo8la-5" value="&lt;h1&gt;&lt;font size=&quot;1&quot; face=&quot;Comic Sans MS&quot;&gt;&lt;b style=&quot;font-size: 18px;&quot;&gt;Authentification&lt;/b&gt;&lt;/font&gt;&lt;/h1&gt;" style="rounded=0;whiteSpace=wrap;html=1;fillColor=#fa6800;strokeColor=#C73500;strokeWidth=2;fontColor=#FFFFFF;" parent="1" vertex="1">
          <mxGeometry x="472" y="416.5" width="190" height="60" as="geometry" />
        </mxCell>
        <mxCell id="doWTckIAzgVQB3qoo8la-14" style="edgeStyle=orthogonalEdgeStyle;rounded=0;orthogonalLoop=1;jettySize=auto;html=1;exitX=0;exitY=0.5;exitDx=0;exitDy=0;entryX=0.5;entryY=0;entryDx=0;entryDy=0;dashed=1;dashPattern=8 8;strokeColor=#000000;" parent="1" source="doWTckIAzgVQB3qoo8la-6" target="doWTckIAzgVQB3qoo8la-5" edge="1">
          <mxGeometry relative="1" as="geometry" />
        </mxCell>
        <mxCell id="doWTckIAzgVQB3qoo8la-22" value="Include" style="edgeLabel;html=1;align=center;verticalAlign=middle;resizable=0;points=[];fontSize=19;labelBackgroundColor=#FFFFFF;fontColor=#000000;fontStyle=1" parent="doWTckIAzgVQB3qoo8la-14" vertex="1" connectable="0">
          <mxGeometry x="-0.2785" y="-2" relative="1" as="geometry">
            <mxPoint x="-14" as="offset" />
          </mxGeometry>
        </mxCell>
        <mxCell id="doWTckIAzgVQB3qoo8la-6" value="&lt;h1&gt;&lt;font size=&quot;1&quot; face=&quot;Comic Sans MS&quot;&gt;&lt;b style=&quot;font-size: 18px;&quot;&gt;Changement des mots de passes&lt;/b&gt;&lt;/font&gt;&lt;/h1&gt;" style="rounded=0;whiteSpace=wrap;html=1;fillColor=#fa6800;strokeColor=#C73500;strokeWidth=2;fontColor=#FFFFFF;" parent="1" vertex="1">
          <mxGeometry x="869" y="283.5" width="280" height="60" as="geometry" />
        </mxCell>
        <mxCell id="doWTckIAzgVQB3qoo8la-9" value="&lt;h1&gt;&lt;font size=&quot;1&quot; face=&quot;Comic Sans MS&quot;&gt;&lt;b style=&quot;font-size: 18px;&quot;&gt;Gestion des comptes&lt;/b&gt;&lt;/font&gt;&lt;/h1&gt;" style="rounded=0;whiteSpace=wrap;html=1;fillColor=#f0a30a;strokeColor=#BD7000;strokeWidth=2;fontColor=#FFFFFF;" parent="1" vertex="1">
          <mxGeometry x="865" y="416.5" width="280" height="60" as="geometry" />
        </mxCell>
        <mxCell id="doWTckIAzgVQB3qoo8la-13" style="edgeStyle=orthogonalEdgeStyle;rounded=0;orthogonalLoop=1;jettySize=auto;html=1;exitX=0;exitY=0.5;exitDx=0;exitDy=0;entryX=0.5;entryY=1;entryDx=0;entryDy=0;dashed=1;dashPattern=8 8;strokeColor=#000000;" parent="1" source="doWTckIAzgVQB3qoo8la-10" target="doWTckIAzgVQB3qoo8la-5" edge="1">
          <mxGeometry relative="1" as="geometry" />
        </mxCell>
        <mxCell id="doWTckIAzgVQB3qoo8la-10" value="&lt;h1&gt;&lt;font size=&quot;1&quot; face=&quot;Comic Sans MS&quot;&gt;&lt;b style=&quot;font-size: 18px;&quot;&gt;Gestion des evenemets&lt;/b&gt;&lt;/font&gt;&lt;/h1&gt;" style="rounded=0;whiteSpace=wrap;html=1;fillColor=#e3c800;strokeColor=#B09500;strokeWidth=2;fontColor=#FFFFFF;" parent="1" vertex="1">
          <mxGeometry x="865" y="552.5" width="280" height="60" as="geometry" />
        </mxCell>
        <mxCell id="doWTckIAzgVQB3qoo8la-23" value="Include" style="edgeLabel;html=1;align=center;verticalAlign=middle;resizable=0;points=[];fontSize=19;labelBackgroundColor=#FFFFFF;fontColor=#000000;fontStyle=1" parent="1" vertex="1" connectable="0">
          <mxGeometry x="754.9961538461538" y="444.5" as="geometry" />
        </mxCell>
        <mxCell id="doWTckIAzgVQB3qoo8la-24" value="Include" style="edgeLabel;html=1;align=center;verticalAlign=middle;resizable=0;points=[];fontSize=19;labelBackgroundColor=#FFFFFF;fontColor=#000000;fontStyle=1" parent="1" vertex="1" connectable="0">
          <mxGeometry x="714.9961538461538" y="582.5" as="geometry" />
        </mxCell>
      </root>
    </mxGraphModel>
  </diagram>
  <diagram id="_HkkWiwdNlmAVrw0G9iy" name="class">
    <mxGraphModel dx="1276" dy="702" grid="0" gridSize="10" guides="1" tooltips="1" connect="1" arrows="1" fold="1" page="1" pageScale="1" pageWidth="1400" pageHeight="850" background="#ffffff" math="0" shadow="0">
      <root>
        <mxCell id="0" />
        <mxCell id="1" parent="0" />
        <mxCell id="e1FxSUsEiCdiwDnYL-o_-1" value="&lt;h1&gt;&lt;font color=&quot;#ffffff&quot; face=&quot;Comic Sans MS&quot; style=&quot;font-size: 18px;&quot;&gt;Students&lt;/font&gt;&lt;/h1&gt;" style="swimlane;fontStyle=1;childLayout=stackLayout;horizontal=1;startSize=30;horizontalStack=0;resizeParent=1;resizeParentMax=0;resizeLast=0;collapsible=1;marginBottom=0;whiteSpace=wrap;html=1;fillColor=#fa6800;fontColor=#000000;strokeColor=#C73500;" parent="1" vertex="1">
          <mxGeometry x="121" y="75" width="220" height="255" as="geometry" />
        </mxCell>
        <mxCell id="e1FxSUsEiCdiwDnYL-o_-2" value="studentID" style="text;strokeColor=none;fillColor=none;align=left;verticalAlign=middle;spacingLeft=4;spacingRight=4;overflow=hidden;points=[[0,0.5],[1,0.5]];portConstraint=eastwest;rotatable=0;whiteSpace=wrap;html=1;fontColor=#000000;fontFamily=Comic Sans MS;fontSize=18;" parent="e1FxSUsEiCdiwDnYL-o_-1" vertex="1">
          <mxGeometry y="30" width="220" height="45" as="geometry" />
        </mxCell>
        <mxCell id="e1FxSUsEiCdiwDnYL-o_-5" value="fullName" style="text;strokeColor=none;fillColor=none;align=left;verticalAlign=middle;spacingLeft=4;spacingRight=4;overflow=hidden;points=[[0,0.5],[1,0.5]];portConstraint=eastwest;rotatable=0;whiteSpace=wrap;html=1;fontColor=#000000;fontFamily=Comic Sans MS;fontSize=18;" parent="e1FxSUsEiCdiwDnYL-o_-1" vertex="1">
          <mxGeometry y="75" width="220" height="45" as="geometry" />
        </mxCell>
        <mxCell id="e1FxSUsEiCdiwDnYL-o_-6" value="email" style="text;strokeColor=none;fillColor=none;align=left;verticalAlign=middle;spacingLeft=4;spacingRight=4;overflow=hidden;points=[[0,0.5],[1,0.5]];portConstraint=eastwest;rotatable=0;whiteSpace=wrap;html=1;fontColor=#000000;fontFamily=Comic Sans MS;fontSize=18;" parent="e1FxSUsEiCdiwDnYL-o_-1" vertex="1">
          <mxGeometry y="120" width="220" height="45" as="geometry" />
        </mxCell>
        <mxCell id="e1FxSUsEiCdiwDnYL-o_-7" value="password" style="text;strokeColor=none;fillColor=none;align=left;verticalAlign=middle;spacingLeft=4;spacingRight=4;overflow=hidden;points=[[0,0.5],[1,0.5]];portConstraint=eastwest;rotatable=0;whiteSpace=wrap;html=1;fontColor=#000000;fontFamily=Comic Sans MS;fontSize=18;" parent="e1FxSUsEiCdiwDnYL-o_-1" vertex="1">
          <mxGeometry y="165" width="220" height="45" as="geometry" />
        </mxCell>
        <mxCell id="e1FxSUsEiCdiwDnYL-o_-8" value="classID" style="text;strokeColor=none;fillColor=none;align=left;verticalAlign=middle;spacingLeft=4;spacingRight=4;overflow=hidden;points=[[0,0.5],[1,0.5]];portConstraint=eastwest;rotatable=0;whiteSpace=wrap;html=1;fontColor=#000000;fontFamily=Comic Sans MS;fontSize=18;" parent="e1FxSUsEiCdiwDnYL-o_-1" vertex="1">
          <mxGeometry y="210" width="220" height="45" as="geometry" />
        </mxCell>
        <mxCell id="e1FxSUsEiCdiwDnYL-o_-12" value="&lt;h1&gt;&lt;font color=&quot;#ffffff&quot; face=&quot;Comic Sans MS&quot; style=&quot;font-size: 18px;&quot;&gt;Teachers&lt;/font&gt;&lt;/h1&gt;" style="swimlane;fontStyle=1;childLayout=stackLayout;horizontal=1;startSize=30;horizontalStack=0;resizeParent=1;resizeParentMax=0;resizeLast=0;collapsible=1;marginBottom=0;whiteSpace=wrap;html=1;fillColor=#fa6800;fontColor=#000000;strokeColor=#C73500;" parent="1" vertex="1">
          <mxGeometry x="125" y="554" width="220" height="255" as="geometry" />
        </mxCell>
        <mxCell id="e1FxSUsEiCdiwDnYL-o_-13" value="teacherID" style="text;strokeColor=none;fillColor=none;align=left;verticalAlign=middle;spacingLeft=4;spacingRight=4;overflow=hidden;points=[[0,0.5],[1,0.5]];portConstraint=eastwest;rotatable=0;whiteSpace=wrap;html=1;fontColor=#000000;fontFamily=Comic Sans MS;fontSize=18;" parent="e1FxSUsEiCdiwDnYL-o_-12" vertex="1">
          <mxGeometry y="30" width="220" height="45" as="geometry" />
        </mxCell>
        <mxCell id="e1FxSUsEiCdiwDnYL-o_-14" value="fullName" style="text;strokeColor=none;fillColor=none;align=left;verticalAlign=middle;spacingLeft=4;spacingRight=4;overflow=hidden;points=[[0,0.5],[1,0.5]];portConstraint=eastwest;rotatable=0;whiteSpace=wrap;html=1;fontColor=#000000;fontFamily=Comic Sans MS;fontSize=18;" parent="e1FxSUsEiCdiwDnYL-o_-12" vertex="1">
          <mxGeometry y="75" width="220" height="45" as="geometry" />
        </mxCell>
        <mxCell id="e1FxSUsEiCdiwDnYL-o_-15" value="email" style="text;strokeColor=none;fillColor=none;align=left;verticalAlign=middle;spacingLeft=4;spacingRight=4;overflow=hidden;points=[[0,0.5],[1,0.5]];portConstraint=eastwest;rotatable=0;whiteSpace=wrap;html=1;fontColor=#000000;fontFamily=Comic Sans MS;fontSize=18;" parent="e1FxSUsEiCdiwDnYL-o_-12" vertex="1">
          <mxGeometry y="120" width="220" height="45" as="geometry" />
        </mxCell>
        <mxCell id="e1FxSUsEiCdiwDnYL-o_-16" value="password" style="text;strokeColor=none;fillColor=none;align=left;verticalAlign=middle;spacingLeft=4;spacingRight=4;overflow=hidden;points=[[0,0.5],[1,0.5]];portConstraint=eastwest;rotatable=0;whiteSpace=wrap;html=1;fontColor=#000000;fontFamily=Comic Sans MS;fontSize=18;" parent="e1FxSUsEiCdiwDnYL-o_-12" vertex="1">
          <mxGeometry y="165" width="220" height="45" as="geometry" />
        </mxCell>
        <mxCell id="e1FxSUsEiCdiwDnYL-o_-17" value="subjectID" style="text;strokeColor=none;fillColor=none;align=left;verticalAlign=middle;spacingLeft=4;spacingRight=4;overflow=hidden;points=[[0,0.5],[1,0.5]];portConstraint=eastwest;rotatable=0;whiteSpace=wrap;html=1;fontColor=#000000;fontFamily=Comic Sans MS;fontSize=18;" parent="e1FxSUsEiCdiwDnYL-o_-12" vertex="1">
          <mxGeometry y="210" width="220" height="45" as="geometry" />
        </mxCell>
        <mxCell id="e1FxSUsEiCdiwDnYL-o_-21" value="&lt;h1&gt;&lt;font color=&quot;#ffffff&quot; face=&quot;Comic Sans MS&quot; style=&quot;font-size: 18px;&quot;&gt;Admin&lt;/font&gt;&lt;/h1&gt;" style="swimlane;fontStyle=1;childLayout=stackLayout;horizontal=1;startSize=30;horizontalStack=0;resizeParent=1;resizeParentMax=0;resizeLast=0;collapsible=1;marginBottom=0;whiteSpace=wrap;html=1;fillColor=#fa6800;fontColor=#000000;strokeColor=#C73500;" parent="1" vertex="1">
          <mxGeometry x="1081" y="595" width="220" height="210" as="geometry" />
        </mxCell>
        <mxCell id="e1FxSUsEiCdiwDnYL-o_-22" value="adminID" style="text;strokeColor=none;fillColor=none;align=left;verticalAlign=middle;spacingLeft=4;spacingRight=4;overflow=hidden;points=[[0,0.5],[1,0.5]];portConstraint=eastwest;rotatable=0;whiteSpace=wrap;html=1;fontColor=#000000;fontFamily=Comic Sans MS;fontSize=18;" parent="e1FxSUsEiCdiwDnYL-o_-21" vertex="1">
          <mxGeometry y="30" width="220" height="45" as="geometry" />
        </mxCell>
        <mxCell id="e1FxSUsEiCdiwDnYL-o_-23" value="fullName" style="text;strokeColor=none;fillColor=none;align=left;verticalAlign=middle;spacingLeft=4;spacingRight=4;overflow=hidden;points=[[0,0.5],[1,0.5]];portConstraint=eastwest;rotatable=0;whiteSpace=wrap;html=1;fontColor=#000000;fontFamily=Comic Sans MS;fontSize=18;" parent="e1FxSUsEiCdiwDnYL-o_-21" vertex="1">
          <mxGeometry y="75" width="220" height="45" as="geometry" />
        </mxCell>
        <mxCell id="e1FxSUsEiCdiwDnYL-o_-24" value="email" style="text;strokeColor=none;fillColor=none;align=left;verticalAlign=middle;spacingLeft=4;spacingRight=4;overflow=hidden;points=[[0,0.5],[1,0.5]];portConstraint=eastwest;rotatable=0;whiteSpace=wrap;html=1;fontColor=#000000;fontFamily=Comic Sans MS;fontSize=18;" parent="e1FxSUsEiCdiwDnYL-o_-21" vertex="1">
          <mxGeometry y="120" width="220" height="45" as="geometry" />
        </mxCell>
        <mxCell id="e1FxSUsEiCdiwDnYL-o_-25" value="password" style="text;strokeColor=none;fillColor=none;align=left;verticalAlign=middle;spacingLeft=4;spacingRight=4;overflow=hidden;points=[[0,0.5],[1,0.5]];portConstraint=eastwest;rotatable=0;whiteSpace=wrap;html=1;fontColor=#000000;fontFamily=Comic Sans MS;fontSize=18;" parent="e1FxSUsEiCdiwDnYL-o_-21" vertex="1">
          <mxGeometry y="165" width="220" height="45" as="geometry" />
        </mxCell>
        <mxCell id="e1FxSUsEiCdiwDnYL-o_-30" value="&lt;h1&gt;&lt;font color=&quot;#ffffff&quot; face=&quot;Comic Sans MS&quot; style=&quot;font-size: 18px;&quot;&gt;Class&lt;/font&gt;&lt;/h1&gt;" style="swimlane;fontStyle=1;childLayout=stackLayout;horizontal=1;startSize=30;horizontalStack=0;resizeParent=1;resizeParentMax=0;resizeLast=0;collapsible=1;marginBottom=0;whiteSpace=wrap;html=1;fillColor=#fa6800;fontColor=#000000;strokeColor=#C73500;" parent="1" vertex="1">
          <mxGeometry x="481" y="66" width="220" height="120" as="geometry" />
        </mxCell>
        <mxCell id="e1FxSUsEiCdiwDnYL-o_-31" value="classID" style="text;strokeColor=none;fillColor=none;align=left;verticalAlign=middle;spacingLeft=4;spacingRight=4;overflow=hidden;points=[[0,0.5],[1,0.5]];portConstraint=eastwest;rotatable=0;whiteSpace=wrap;html=1;fontColor=#000000;fontFamily=Comic Sans MS;fontSize=18;" parent="e1FxSUsEiCdiwDnYL-o_-30" vertex="1">
          <mxGeometry y="30" width="220" height="45" as="geometry" />
        </mxCell>
        <mxCell id="e1FxSUsEiCdiwDnYL-o_-32" value="className" style="text;strokeColor=none;fillColor=none;align=left;verticalAlign=middle;spacingLeft=4;spacingRight=4;overflow=hidden;points=[[0,0.5],[1,0.5]];portConstraint=eastwest;rotatable=0;whiteSpace=wrap;html=1;fontColor=#000000;fontFamily=Comic Sans MS;fontSize=18;" parent="e1FxSUsEiCdiwDnYL-o_-30" vertex="1">
          <mxGeometry y="75" width="220" height="45" as="geometry" />
        </mxCell>
        <mxCell id="e1FxSUsEiCdiwDnYL-o_-35" value="&lt;h1&gt;&lt;font color=&quot;#ffffff&quot; face=&quot;Comic Sans MS&quot; style=&quot;font-size: 18px;&quot;&gt;Courses&lt;/font&gt;&lt;/h1&gt;" style="swimlane;fontStyle=1;childLayout=stackLayout;horizontal=1;startSize=30;horizontalStack=0;resizeParent=1;resizeParentMax=0;resizeLast=0;collapsible=1;marginBottom=0;whiteSpace=wrap;html=1;fillColor=#fa6800;fontColor=#000000;strokeColor=#C73500;" parent="1" vertex="1">
          <mxGeometry x="488" y="373" width="220" height="255" as="geometry" />
        </mxCell>
        <mxCell id="e1FxSUsEiCdiwDnYL-o_-36" value="courseID" style="text;strokeColor=none;fillColor=none;align=left;verticalAlign=middle;spacingLeft=4;spacingRight=4;overflow=hidden;points=[[0,0.5],[1,0.5]];portConstraint=eastwest;rotatable=0;whiteSpace=wrap;html=1;fontColor=#000000;fontFamily=Comic Sans MS;fontSize=18;" parent="e1FxSUsEiCdiwDnYL-o_-35" vertex="1">
          <mxGeometry y="30" width="220" height="45" as="geometry" />
        </mxCell>
        <mxCell id="e1FxSUsEiCdiwDnYL-o_-37" value="courseName" style="text;strokeColor=none;fillColor=none;align=left;verticalAlign=middle;spacingLeft=4;spacingRight=4;overflow=hidden;points=[[0,0.5],[1,0.5]];portConstraint=eastwest;rotatable=0;whiteSpace=wrap;html=1;fontColor=#000000;fontFamily=Comic Sans MS;fontSize=18;" parent="e1FxSUsEiCdiwDnYL-o_-35" vertex="1">
          <mxGeometry y="75" width="220" height="45" as="geometry" />
        </mxCell>
        <mxCell id="e1FxSUsEiCdiwDnYL-o_-39" value="classID" style="text;strokeColor=none;fillColor=none;align=left;verticalAlign=middle;spacingLeft=4;spacingRight=4;overflow=hidden;points=[[0,0.5],[1,0.5]];portConstraint=eastwest;rotatable=0;whiteSpace=wrap;html=1;fontColor=#000000;fontFamily=Comic Sans MS;fontSize=18;" parent="e1FxSUsEiCdiwDnYL-o_-35" vertex="1">
          <mxGeometry y="120" width="220" height="45" as="geometry" />
        </mxCell>
        <mxCell id="e1FxSUsEiCdiwDnYL-o_-40" value="subjectID" style="text;strokeColor=none;fillColor=none;align=left;verticalAlign=middle;spacingLeft=4;spacingRight=4;overflow=hidden;points=[[0,0.5],[1,0.5]];portConstraint=eastwest;rotatable=0;whiteSpace=wrap;html=1;fontColor=#000000;fontFamily=Comic Sans MS;fontSize=18;" parent="e1FxSUsEiCdiwDnYL-o_-35" vertex="1">
          <mxGeometry y="165" width="220" height="45" as="geometry" />
        </mxCell>
        <mxCell id="e1FxSUsEiCdiwDnYL-o_-38" value="teacherID" style="text;strokeColor=none;fillColor=none;align=left;verticalAlign=middle;spacingLeft=4;spacingRight=4;overflow=hidden;points=[[0,0.5],[1,0.5]];portConstraint=eastwest;rotatable=0;whiteSpace=wrap;html=1;fontColor=#000000;fontFamily=Comic Sans MS;fontSize=18;" parent="e1FxSUsEiCdiwDnYL-o_-35" vertex="1">
          <mxGeometry y="210" width="220" height="45" as="geometry" />
        </mxCell>
        <mxCell id="e1FxSUsEiCdiwDnYL-o_-41" value="&lt;h1&gt;&lt;font color=&quot;#ffffff&quot; face=&quot;Comic Sans MS&quot; style=&quot;font-size: 18px;&quot;&gt;Events&lt;/font&gt;&lt;/h1&gt;" style="swimlane;fontStyle=1;childLayout=stackLayout;horizontal=1;startSize=30;horizontalStack=0;resizeParent=1;resizeParentMax=0;resizeLast=0;collapsible=1;marginBottom=0;whiteSpace=wrap;html=1;fillColor=#fa6800;fontColor=#000000;strokeColor=#C73500;" parent="1" vertex="1">
          <mxGeometry x="798" y="595" width="220" height="210" as="geometry" />
        </mxCell>
        <mxCell id="21DNqeP1yDiq0yLt7JIg-1" value="evenetID" style="text;strokeColor=none;fillColor=none;align=left;verticalAlign=middle;spacingLeft=4;spacingRight=4;overflow=hidden;points=[[0,0.5],[1,0.5]];portConstraint=eastwest;rotatable=0;whiteSpace=wrap;html=1;fontColor=#000000;fontFamily=Comic Sans MS;fontSize=18;" vertex="1" parent="e1FxSUsEiCdiwDnYL-o_-41">
          <mxGeometry y="30" width="220" height="45" as="geometry" />
        </mxCell>
        <mxCell id="e1FxSUsEiCdiwDnYL-o_-42" value="evenetName" style="text;strokeColor=none;fillColor=none;align=left;verticalAlign=middle;spacingLeft=4;spacingRight=4;overflow=hidden;points=[[0,0.5],[1,0.5]];portConstraint=eastwest;rotatable=0;whiteSpace=wrap;html=1;fontColor=#000000;fontFamily=Comic Sans MS;fontSize=18;" parent="e1FxSUsEiCdiwDnYL-o_-41" vertex="1">
          <mxGeometry y="75" width="220" height="45" as="geometry" />
        </mxCell>
        <mxCell id="e1FxSUsEiCdiwDnYL-o_-43" value="date" style="text;strokeColor=none;fillColor=none;align=left;verticalAlign=middle;spacingLeft=4;spacingRight=4;overflow=hidden;points=[[0,0.5],[1,0.5]];portConstraint=eastwest;rotatable=0;whiteSpace=wrap;html=1;fontColor=#000000;fontFamily=Comic Sans MS;fontSize=18;" parent="e1FxSUsEiCdiwDnYL-o_-41" vertex="1">
          <mxGeometry y="120" width="220" height="45" as="geometry" />
        </mxCell>
        <mxCell id="e1FxSUsEiCdiwDnYL-o_-44" value="description" style="text;strokeColor=none;fillColor=none;align=left;verticalAlign=middle;spacingLeft=4;spacingRight=4;overflow=hidden;points=[[0,0.5],[1,0.5]];portConstraint=eastwest;rotatable=0;whiteSpace=wrap;html=1;fontColor=#000000;fontFamily=Comic Sans MS;fontSize=18;" parent="e1FxSUsEiCdiwDnYL-o_-41" vertex="1">
          <mxGeometry y="165" width="220" height="45" as="geometry" />
        </mxCell>
        <mxCell id="e1FxSUsEiCdiwDnYL-o_-46" value="&lt;h1&gt;&lt;font color=&quot;#ffffff&quot; face=&quot;Comic Sans MS&quot; style=&quot;font-size: 18px;&quot;&gt;Exames&lt;/font&gt;&lt;/h1&gt;" style="swimlane;fontStyle=1;childLayout=stackLayout;horizontal=1;startSize=30;horizontalStack=0;resizeParent=1;resizeParentMax=0;resizeLast=0;collapsible=1;marginBottom=0;whiteSpace=wrap;html=1;fillColor=#fa6800;fontColor=#000000;strokeColor=#C73500;" parent="1" vertex="1">
          <mxGeometry x="850" y="368" width="220" height="165" as="geometry" />
        </mxCell>
        <mxCell id="e1FxSUsEiCdiwDnYL-o_-47" value="subjectID" style="text;strokeColor=none;fillColor=none;align=left;verticalAlign=middle;spacingLeft=4;spacingRight=4;overflow=hidden;points=[[0,0.5],[1,0.5]];portConstraint=eastwest;rotatable=0;whiteSpace=wrap;html=1;fontColor=#000000;fontFamily=Comic Sans MS;fontSize=18;" parent="e1FxSUsEiCdiwDnYL-o_-46" vertex="1">
          <mxGeometry y="30" width="220" height="45" as="geometry" />
        </mxCell>
        <mxCell id="e1FxSUsEiCdiwDnYL-o_-48" value="classID" style="text;strokeColor=none;fillColor=none;align=left;verticalAlign=middle;spacingLeft=4;spacingRight=4;overflow=hidden;points=[[0,0.5],[1,0.5]];portConstraint=eastwest;rotatable=0;whiteSpace=wrap;html=1;fontColor=#000000;fontFamily=Comic Sans MS;fontSize=18;" parent="e1FxSUsEiCdiwDnYL-o_-46" vertex="1">
          <mxGeometry y="75" width="220" height="45" as="geometry" />
        </mxCell>
        <mxCell id="e1FxSUsEiCdiwDnYL-o_-49" value="date" style="text;strokeColor=none;fillColor=none;align=left;verticalAlign=middle;spacingLeft=4;spacingRight=4;overflow=hidden;points=[[0,0.5],[1,0.5]];portConstraint=eastwest;rotatable=0;whiteSpace=wrap;html=1;fontColor=#000000;fontFamily=Comic Sans MS;fontSize=18;" parent="e1FxSUsEiCdiwDnYL-o_-46" vertex="1">
          <mxGeometry y="120" width="220" height="45" as="geometry" />
        </mxCell>
        <mxCell id="e1FxSUsEiCdiwDnYL-o_-50" style="edgeStyle=orthogonalEdgeStyle;rounded=0;orthogonalLoop=1;jettySize=auto;html=1;exitX=1;exitY=0.5;exitDx=0;exitDy=0;entryX=0;entryY=0.5;entryDx=0;entryDy=0;fontColor=#000000;strokeColor=#CC6600;" parent="1" source="e1FxSUsEiCdiwDnYL-o_-8" target="e1FxSUsEiCdiwDnYL-o_-31" edge="1">
          <mxGeometry relative="1" as="geometry" />
        </mxCell>
        <mxCell id="e1FxSUsEiCdiwDnYL-o_-51" value="&lt;h1&gt;&lt;font color=&quot;#ffffff&quot; face=&quot;Comic Sans MS&quot; style=&quot;font-size: 18px;&quot;&gt;Subjects&lt;/font&gt;&lt;/h1&gt;" style="swimlane;fontStyle=1;childLayout=stackLayout;horizontal=1;startSize=30;horizontalStack=0;resizeParent=1;resizeParentMax=0;resizeLast=0;collapsible=1;marginBottom=0;whiteSpace=wrap;html=1;fillColor=#fa6800;fontColor=#000000;strokeColor=#C73500;" parent="1" vertex="1">
          <mxGeometry x="840" y="66" width="220" height="165" as="geometry" />
        </mxCell>
        <mxCell id="e1FxSUsEiCdiwDnYL-o_-52" value="subjectID" style="text;strokeColor=none;fillColor=none;align=left;verticalAlign=middle;spacingLeft=4;spacingRight=4;overflow=hidden;points=[[0,0.5],[1,0.5]];portConstraint=eastwest;rotatable=0;whiteSpace=wrap;html=1;fontColor=#000000;fontFamily=Comic Sans MS;fontSize=18;" parent="e1FxSUsEiCdiwDnYL-o_-51" vertex="1">
          <mxGeometry y="30" width="220" height="45" as="geometry" />
        </mxCell>
        <mxCell id="e1FxSUsEiCdiwDnYL-o_-53" value="subjectName" style="text;strokeColor=none;fillColor=none;align=left;verticalAlign=middle;spacingLeft=4;spacingRight=4;overflow=hidden;points=[[0,0.5],[1,0.5]];portConstraint=eastwest;rotatable=0;whiteSpace=wrap;html=1;fontColor=#000000;fontFamily=Comic Sans MS;fontSize=18;" parent="e1FxSUsEiCdiwDnYL-o_-51" vertex="1">
          <mxGeometry y="75" width="220" height="45" as="geometry" />
        </mxCell>
        <mxCell id="e1FxSUsEiCdiwDnYL-o_-54" value="ClassID" style="text;strokeColor=none;fillColor=none;align=left;verticalAlign=middle;spacingLeft=4;spacingRight=4;overflow=hidden;points=[[0,0.5],[1,0.5]];portConstraint=eastwest;rotatable=0;whiteSpace=wrap;html=1;fontColor=#000000;fontFamily=Comic Sans MS;fontSize=18;" parent="e1FxSUsEiCdiwDnYL-o_-51" vertex="1">
          <mxGeometry y="120" width="220" height="45" as="geometry" />
        </mxCell>
        <mxCell id="e1FxSUsEiCdiwDnYL-o_-55" style="edgeStyle=orthogonalEdgeStyle;rounded=0;orthogonalLoop=1;jettySize=auto;html=1;exitX=0;exitY=0.5;exitDx=0;exitDy=0;entryX=1;entryY=0.5;entryDx=0;entryDy=0;strokeColor=#CC6600;" parent="1" source="e1FxSUsEiCdiwDnYL-o_-54" target="e1FxSUsEiCdiwDnYL-o_-31" edge="1">
          <mxGeometry relative="1" as="geometry" />
        </mxCell>
        <mxCell id="e1FxSUsEiCdiwDnYL-o_-56" style="edgeStyle=orthogonalEdgeStyle;rounded=0;orthogonalLoop=1;jettySize=auto;html=1;exitX=0;exitY=0.5;exitDx=0;exitDy=0;entryX=1;entryY=0.5;entryDx=0;entryDy=0;strokeColor=#FF8000;" parent="1" source="e1FxSUsEiCdiwDnYL-o_-38" target="e1FxSUsEiCdiwDnYL-o_-13" edge="1">
          <mxGeometry relative="1" as="geometry" />
        </mxCell>
        <mxCell id="Kpigc7XRafOTdrLiim8b-1" style="edgeStyle=orthogonalEdgeStyle;rounded=0;orthogonalLoop=1;jettySize=auto;html=1;exitX=1;exitY=0.5;exitDx=0;exitDy=0;entryX=1;entryY=0.5;entryDx=0;entryDy=0;strokeColor=#FF8000;" parent="1" source="e1FxSUsEiCdiwDnYL-o_-47" target="e1FxSUsEiCdiwDnYL-o_-52" edge="1">
          <mxGeometry relative="1" as="geometry">
            <Array as="points">
              <mxPoint x="1101" y="421" />
              <mxPoint x="1101" y="119" />
            </Array>
          </mxGeometry>
        </mxCell>
        <mxCell id="Kpigc7XRafOTdrLiim8b-3" style="edgeStyle=orthogonalEdgeStyle;rounded=0;orthogonalLoop=1;jettySize=auto;html=1;exitX=0;exitY=0.5;exitDx=0;exitDy=0;entryX=1;entryY=0.5;entryDx=0;entryDy=0;strokeColor=#FF8000;" parent="1" source="e1FxSUsEiCdiwDnYL-o_-48" target="e1FxSUsEiCdiwDnYL-o_-31" edge="1">
          <mxGeometry relative="1" as="geometry">
            <Array as="points">
              <mxPoint x="771" y="466" />
              <mxPoint x="771" y="118" />
            </Array>
          </mxGeometry>
        </mxCell>
        <mxCell id="Kpigc7XRafOTdrLiim8b-4" style="edgeStyle=orthogonalEdgeStyle;rounded=0;orthogonalLoop=1;jettySize=auto;html=1;exitX=0;exitY=0.5;exitDx=0;exitDy=0;entryX=0;entryY=0.5;entryDx=0;entryDy=0;strokeColor=#FF8000;" parent="1" source="e1FxSUsEiCdiwDnYL-o_-39" target="e1FxSUsEiCdiwDnYL-o_-31" edge="1">
          <mxGeometry relative="1" as="geometry">
            <Array as="points">
              <mxPoint x="411" y="516" />
              <mxPoint x="411" y="118" />
            </Array>
          </mxGeometry>
        </mxCell>
      </root>
    </mxGraphModel>
  </diagram>
</mxfile>
